<svg width="119" height="95" viewBox="0 0 119 95" fill="none" xmlns="http://www.w3.org/2000/svg">
<path d="M91.0078 75.2924C91.0078 75.2924 97.5855 75.9593 100.512 75.2924C102.839 74.7621 104.813 74.661 105.984 72.9248C107.02 71.3885 107.167 69.8894 105.984 68.4265C104.723 66.8674 102.777 66.2532 100.512 66.0589C97.527 65.8029 95.0337 66.3576 93.0238 68.1897C90.7628 70.2507 91.0078 75.2924 91.0078 75.2924ZM91.0078 75.2924C91.0078 75.2924 91.3911 79.3134 92.7358 81.4481C94.4245 84.1287 96.8401 84.9581 100.512 84.9995C104.284 85.042 108 82.6319 108 82.6319" stroke="#FF6D3C" stroke-width="5"/>
<path d="M11.2657 4.32381V54.2539C11.2657 54.8062 11.7135 55.2539 12.2657 55.2539H21.3356C21.3611 55.2539 21.3826 55.2546 21.408 55.2563C21.9161 55.2912 27.9636 55.6582 30.9204 53.6025C34.2405 51.2942 36.0511 48.7567 36.5361 44.7952C37.3128 38.4506 36.1797 34.9141 35.9983 34.4015C35.9824 34.3563 35.9697 34.3156 35.9575 34.2692C35.8094 33.7031 34.6516 29.6737 30.9204 26.3548C29.0613 24.7011 25.9135 23.6984 23.4687 23.1323C22.4845 22.9044 22.2116 21.2898 23.0431 20.7161C24.3762 19.7962 25.7792 18.5913 26.4279 17.2722C27.9041 14.2708 27.9041 11.7415 26.4279 8.7401C25.0074 5.85168 23.0405 4.61666 19.97 3.51074C17.5221 2.6291 13.707 3.10025 12.0633 3.3674C11.5958 3.44339 11.2657 3.85017 11.2657 4.32381Z" stroke="#FFA000" stroke-width="5"/>
<path d="M46 26.5V34.3303M46 57V34.3303M46 34.3303C46 34.3303 48.699 30.8517 51.0541 29.6514C52.8079 28.7574 54.135 28.6686 56.1081 28.5505C58.4985 28.4074 62.0045 30.2018 62.0045 30.2018" stroke="#FFA000" stroke-width="5"/>
<path d="M66.8563 31.6411C66.8563 31.6411 69.087 29.2848 71.011 28.6741C72.9351 28.0635 74.7366 27.7931 76.7237 28.1797C78.9027 28.6036 80.1551 29.1686 81.6574 30.4048C83.1597 31.641 83.7347 32.3828 84.5137 34.3607C85.6078 37.1387 84.5137 42.6433 84.5137 42.6433M84.5137 57V50.9259M84.5137 50.9259C84.5137 50.9259 81.4829 52.8599 79.3204 53.6456C77.2751 54.3886 75.685 54.8581 73.8674 54.8818C72.0497 54.9055 69.9723 54.6346 68.9337 54.3873C67.895 54.1401 66.0849 53.6592 65.0387 52.4094C64.179 51.3824 64 50.1842 64 49.1952C64 47.959 64.1719 46.6012 65.0387 45.2394C65.8177 44.0154 67.1948 43.1084 68.9337 42.2725C70.4765 41.5307 71.9677 41.2188 74.127 41.0363C76.0462 40.874 77.4095 41.0488 79.3204 41.2835C81.4065 41.5397 84.5137 42.6433 84.5137 42.6433M84.5137 50.9259V42.6433" stroke="#FFA000" stroke-width="5"/>
<path d="M90.7269 29.3823V56.9053" stroke="#FFA000" stroke-width="5"/>
<path d="M97 28.4381V36.9009M97 57V36.9009M97 36.9009C97 36.9009 98.9647 32.926 101.03 31.0828C102.289 29.9586 103.154 29.0662 104.772 28.4381C106.133 27.9093 107.938 27.9092 109.377 28.1737C111.364 28.5388 112.166 28.8025 113.694 30.0249C115.062 31.1182 115.991 32.6695 115.997 33.7274C116.004 34.7852 115.997 57 115.997 57" stroke="#FFA000" stroke-width="5"/>
<path d="M72.1953 66.3121V72.5769M72.1953 87.4557V72.5769M72.1953 72.5769C72.1953 72.5769 73.4728 69.6343 74.8155 68.2699C75.6344 67.4377 76.197 66.7771 77.2486 66.3121C78.1341 65.9207 79.3074 65.9206 80.2432 66.1164C81.5352 66.3867 82.0566 66.5819 83.0505 67.4868C83.9395 68.2961 84.5436 69.4445 84.5478 70.2276C84.552 71.0107 84.5478 86.8684 84.5478 86.8684" stroke="#FF6D3C" stroke-width="5"/>
<path d="M2 70.7064L20.7738 51.0434C21.3967 50.391 22.497 50.8319 22.497 51.734V90.559C22.497 91.4537 23.5819 91.8981 24.2096 91.2606L45.8019 69.3303" stroke="#FF6D3C" stroke-width="5"/>
<path d="M65.5 75.5C65.5 81.0759 62.0539 84.5 59 84.5C55.9461 84.5 52.5 81.0759 52.5 75.5C52.5 69.9241 55.9461 66.5 59 66.5C62.0539 66.5 65.5 69.9241 65.5 75.5Z" stroke="#FF6D3C" stroke-width="5"/>
<path d="M90.7627 23.8405H90.648" stroke="#FFA000" stroke-width="5" stroke-linecap="round"/>
</svg>
