<?xml version="1.0" standalone="no"?>
<!DOCTYPE svg PUBLIC "-//W3C//DTD SVG 20010904//EN"
 "http://www.w3.org/TR/2001/REC-SVG-20010904/DTD/svg10.dtd">
<svg version="1.0" xmlns="http://www.w3.org/2000/svg"
 width="216.000000pt" height="216.000000pt" viewBox="0 0 216.000000 216.000000"
 preserveAspectRatio="xMidYMid meet">

<g transform="translate(0.000000,216.000000) scale(0.100000,-0.100000)"
fill="#ff6d3c" stroke="none">
<path d="M0 2118 c1 -40 2 -42 15 -24 20 26 19 66 0 66 -11 0 -15 -11 -15 -42z"/>
<path d="M61 2138 c-21 -56 -22 -85 -5 -92 21 -8 31 6 39 56 4 21 11 40 16 44
5 3 49 -26 98 -65 88 -69 89 -70 96 -44 3 14 5 26 3 27 -2 2 -31 24 -65 49
-56 43 -66 47 -117 47 -49 0 -58 -3 -65 -22z"/>
<path d="M343 2148 c-28 -36 -14 -110 22 -124 13 -5 10 -10 -14 -25 -38 -23
-42 -68 -9 -99 28 -25 48 -25 82 1 23 18 27 19 32 4 8 -19 -3 -32 -30 -37 -11
-1 -21 -9 -24 -15 -6 -20 53 -16 71 5 28 31 20 61 -27 108 -41 41 -42 44 -19
44 30 0 83 51 83 79 0 11 -5 32 -12 46 -9 20 -18 25 -47 25 -35 0 -35 0 -13
-16 30 -21 29 -59 -4 -81 -19 -12 -30 -14 -43 -6 -19 12 -27 51 -12 66 7 7 7
14 0 24 -14 16 -24 17 -36 1z m60 -182 c21 -16 22 -30 3 -45 -19 -16 -56 3
-56 28 0 33 22 40 53 17z"/>
<path d="M548 2131 c19 -34 20 -35 42 -21 22 14 0 44 -33 48 l-27 3 18 -30z"/>
<path d="M720 2152 c0 -11 59 -67 64 -61 2 2 9 14 15 27 15 28 47 29 61 1 14
-25 -3 -49 -32 -46 -28 3 -34 -20 -8 -28 47 -15 95 49 70 94 -8 16 -20 21 -53
21 -24 0 -48 -5 -54 -11 -8 -8 -13 -8 -17 0 -8 13 -46 15 -46 3z"/>
<path d="M940 2150 c0 -5 9 -19 20 -30 31 -31 94 -27 128 7 23 24 25 28 9 31
-9 2 -33 -2 -52 -8 -24 -8 -40 -8 -54 -1 -25 14 -51 14 -51 1z"/>
<path d="M1140 2145 c0 -8 4 -15 9 -15 5 0 14 7 21 15 10 13 9 15 -9 15 -12 0
-21 -6 -21 -15z"/>
<path d="M1314 2146 c-8 -22 14 -56 36 -56 26 0 26 16 -1 23 -12 3 -19 11 -17
19 5 14 20 14 81 3 31 -6 36 -5 32 7 -8 21 -123 24 -131 4z"/>
<path d="M1577 2142 c6 -24 -22 -48 -40 -34 -8 7 -18 8 -27 1 -13 -8 -12 -12
4 -24 26 -20 38 -19 70 6 31 25 36 69 7 69 -14 0 -18 -5 -14 -18z"/>
<path d="M1663 2130 c-29 -17 -53 -36 -53 -43 0 -7 14 -18 31 -24 25 -10 30
-17 26 -33 -6 -25 12 -38 27 -18 6 8 19 17 30 21 14 6 16 10 7 21 -10 11 -8
23 8 55 12 22 21 43 21 46 0 14 -51 1 -97 -25z m37 -30 c-11 -20 -40 -28 -40
-10 0 9 28 29 43 30 4 0 3 -9 -3 -20z"/>
<path d="M1798 2148 c9 -9 15 -9 24 0 9 9 7 12 -12 12 -19 0 -21 -3 -12 -12z"/>
<path d="M1920 2146 c0 -22 38 -63 65 -70 14 -4 35 -2 46 5 16 8 25 7 39 -6
11 -10 31 -15 52 -13 32 3 33 5 36 51 2 27 -1 47 -7 47 -6 0 -8 -7 -5 -15 6
-15 -12 -45 -27 -45 -15 0 -40 33 -35 46 9 22 -32 17 -44 -6 -6 -11 -20 -20
-30 -20 -11 0 -28 9 -37 20 -20 23 -53 27 -53 6z"/>
<path d="M630 2130 c-12 -8 -12 -11 3 -28 9 -10 17 -21 17 -24 0 -4 -36 -27
-80 -52 -72 -42 -79 -48 -68 -66 14 -22 7 -24 146 57 90 53 108 75 65 81 -12
2 -29 12 -39 23 -19 22 -23 22 -44 9z"/>
<path d="M1164 2115 c-24 -37 -6 -75 35 -75 16 0 31 -6 35 -15 7 -19 50 -19
65 -1 14 17 11 68 -4 64 -5 -2 -9 -10 -8 -20 1 -9 -4 -21 -12 -28 -15 -12 -16
-11 -31 38 -3 11 -7 10 -19 -2 -9 -8 -22 -13 -31 -9 -21 8 -14 48 8 47 9 -1
19 5 22 12 10 26 -42 16 -60 -11z"/>
<path d="M1820 2108 c-19 -5 -39 -14 -44 -18 -16 -15 21 -23 54 -12 29 11 30
10 29 -21 0 -18 -4 -54 -9 -82 -9 -57 -9 -58 12 -50 11 4 18 26 22 63 4 31 9
74 12 95 5 34 4 37 -18 36 -12 0 -39 -5 -58 -11z"/>
<path d="M945 2082 c-11 -7 -49 -222 -41 -230 10 -9 138 23 143 35 9 23 -5 27
-55 16 -26 -6 -48 -11 -48 -10 -2 2 22 138 31 175 5 22 -9 29 -30 14z"/>
<path d="M112 2036 c-91 -53 -102 -63 -76 -72 10 -3 29 -11 41 -17 28 -13 40
-3 23 18 -15 18 -18 15 42 49 54 31 60 37 50 53 -5 7 -32 -4 -80 -31z"/>
<path d="M1370 2071 c0 -5 9 -11 21 -14 12 -3 18 -10 14 -17 -4 -6 -13 -9 -20
-6 -18 7 -27 -5 -14 -20 7 -8 7 -14 -1 -19 -17 -11 -40 3 -34 20 3 8 2 15 -4
15 -6 0 -12 -6 -15 -12 -8 -23 13 -48 39 -48 14 0 27 7 31 18 4 9 16 24 26 33
16 13 18 19 8 37 -11 21 -51 31 -51 13z"/>
<path d="M1027 2052 c-33 -37 -16 -92 28 -92 14 0 26 -10 33 -25 24 -53 102
-21 102 42 0 37 -21 57 -55 51 -14 -3 -25 -2 -25 3 0 14 -31 39 -49 39 -10 0
-25 -8 -34 -18z m50 -28 c8 -21 -13 -42 -28 -27 -13 13 -5 43 11 43 6 0 13 -7
17 -16z m78 -54 c0 -16 -6 -26 -18 -28 -19 -4 -32 20 -23 44 9 25 41 13 41
-16z"/>
<path d="M1457 2042 c-39 -43 -49 -128 -18 -156 47 -42 117 10 95 71 -7 20
-17 29 -37 31 -21 3 -27 8 -23 19 3 8 6 17 6 19 0 2 9 4 20 4 11 0 20 -6 20
-14 0 -8 7 -17 16 -20 24 -9 26 -8 19 17 -14 46 -68 62 -98 29z m47 -94 c13
-22 -14 -54 -38 -45 -16 6 -22 48 -9 61 11 11 35 3 47 -16z"/>
<path d="M1932 2040 c-33 -14 -27 -55 8 -55 20 0 25 5 24 23 0 12 4 21 10 19
6 -2 9 -13 8 -23 -3 -16 -1 -17 9 -6 10 9 11 17 3 30 -13 21 -31 24 -62 12z
m14 -36 c-5 -14 -9 -15 -19 -5 -9 9 -9 14 3 21 18 11 24 6 16 -16z"/>
<path d="M786 2011 c-28 -31 -6 -61 44 -61 54 0 70 8 70 36 0 43 -81 61 -114
25z m92 -23 c3 -15 -4 -18 -37 -18 -42 0 -63 16 -40 31 23 15 73 6 77 -13z"/>
<path d="M2012 1989 c-28 -49 -28 -54 6 -78 43 -30 55 -30 62 4 6 33 32 44 55
25 25 -21 18 -47 -17 -59 -23 -8 -29 -14 -21 -22 7 -7 23 -9 37 -5 24 6 26 11
26 60 0 40 -4 55 -16 60 -34 13 -63 5 -82 -21 -18 -24 -21 -26 -27 -11 -4 10
0 27 9 40 19 27 20 34 3 41 -7 3 -22 -11 -35 -34z"/>
<path d="M1593 1989 c-8 -8 -3 -31 23 -93 20 -44 40 -85 45 -91 15 -15 94 69
85 91 -6 15 -11 13 -41 -16 l-34 -33 -16 39 c-40 100 -50 115 -62 103z"/>
<path d="M1744 1985 c-4 -9 -4 -19 0 -22 3 -4 6 -1 6 5 0 7 7 12 15 12 17 0
19 -9 5 -44 -11 -31 1 -42 30 -24 25 16 27 32 1 19 -16 -9 -18 -6 -17 27 1 27
-3 37 -17 40 -9 2 -20 -4 -23 -13z"/>
<path d="M740 1960 c0 -36 -6 -36 -71 -9 -46 20 -74 20 -53 0 8 -8 131 -61
141 -61 2 0 3 23 3 50 0 28 -4 50 -10 50 -5 0 -10 -13 -10 -30z"/>
<path d="M223 1938 c-32 -31 -33 -32 -53 -13 -19 17 -22 18 -37 2 -15 -15 -15
-18 0 -35 9 -10 14 -26 11 -39 -7 -24 11 -39 30 -24 9 8 26 -3 66 -44 85 -86
97 -75 69 68 -10 54 -21 102 -24 107 -11 17 -30 11 -62 -22z m46 -77 l9 -43
-29 28 c-27 26 -28 29 -12 46 20 22 20 22 32 -31z"/>
<path d="M0 1915 c0 -36 3 -46 10 -35 12 19 12 51 0 70 -7 11 -10 1 -10 -35z"/>
<path d="M1268 1939 c-44 -22 -46 -31 -17 -51 32 -20 18 -60 -19 -56 -22 2
-27 8 -25 28 3 42 -5 54 -23 39 -23 -19 -14 -69 19 -93 26 -19 30 -19 54 -6
40 23 50 44 36 80 -8 21 -8 32 -1 36 11 7 19 -1 44 -43 8 -12 15 -15 23 -8 7
7 3 23 -15 53 -14 23 -28 42 -32 42 -4 -1 -24 -10 -44 -21z"/>
<path d="M1896 1915 c-16 -24 -16 -26 9 -35 28 -11 32 -22 10 -40 -16 -14 -35
-6 -35 16 0 8 -4 14 -10 14 -14 0 -13 -23 2 -38 7 -7 21 -12 33 -12 45 0 61
48 24 73 -22 16 -12 31 11 16 30 -18 46 -9 20 11 -33 26 -44 25 -64 -5z"/>
<path d="M819 1914 c-12 -15 -10 -16 19 -10 47 11 42 -18 -8 -44 -56 -28 -54
-41 8 -55 20 -4 32 -3 32 4 0 6 -6 11 -14 11 -28 0 -26 19 4 35 20 11 30 23
30 39 0 36 -47 49 -71 20z"/>
<path d="M582 1898 c-7 -7 -12 -22 -12 -34 0 -14 -8 -25 -20 -29 -24 -7 -37
-51 -23 -74 5 -9 22 -22 37 -29 38 -19 79 7 74 46 -2 19 3 30 17 37 29 15 31
59 3 79 -27 19 -59 21 -76 4z m64 -30 c9 -15 -27 -41 -39 -29 -13 13 -1 41 17
41 8 0 18 -5 22 -12z m-42 -75 c4 -9 0 -23 -9 -32 -13 -14 -17 -14 -31 1 -9 9
-14 24 -11 32 8 21 43 20 51 -1z"/>
<path d="M42 1869 c-17 -12 -32 -25 -32 -30 0 -13 7 -11 35 7 l23 15 7 -55 c4
-31 12 -56 17 -56 11 0 1 120 -11 132 -3 4 -21 -2 -39 -13z"/>
<path d="M1067 1872 c-21 -23 -21 -31 -2 -52 14 -16 14 -18 0 -24 -12 -4 -19
0 -22 14 -6 23 -23 27 -23 6 0 -16 26 -46 39 -46 14 0 60 40 72 62 8 15 7 24
-7 39 -21 24 -36 24 -57 1z m49 -13 c10 -17 -23 -46 -38 -31 -8 8 -8 15 2 27
15 18 26 19 36 4z"/>
<path d="M1545 1881 c-11 -20 -24 -205 -14 -222 8 -17 12 -16 52 6 51 30 54
30 62 5 7 -22 22 -25 44 -11 12 8 12 13 -3 35 -15 23 -15 27 -2 32 22 9 2 44
-21 38 -14 -4 -27 11 -53 61 -33 61 -51 77 -65 56z m50 -121 c14 -28 14 -30
-6 -40 -11 -7 -22 -10 -23 -8 -4 4 5 78 10 78 2 0 10 -13 19 -30z"/>
<path d="M705 1868 c-7 -26 -12 -146 -6 -157 5 -7 17 -4 39 9 31 19 32 19 45
0 18 -26 43 -11 28 18 -8 15 -8 21 1 24 6 2 8 10 4 17 -5 7 -13 10 -20 8 -7
-3 -24 17 -40 44 -27 49 -43 60 -51 37z m42 -102 c-9 -26 -27 -15 -27 16 1 31
1 32 15 13 9 -10 14 -24 12 -29z"/>
<path d="M1973 1864 c-4 -10 1 -22 10 -29 10 -7 17 -18 17 -24 0 -7 10 -11 23
-9 25 3 39 48 14 48 -8 0 -17 7 -21 15 -7 20 -35 19 -43 -1z m32 -4 c3 -5 -1
-10 -9 -10 -9 0 -16 5 -16 10 0 6 4 10 9 10 6 0 13 -4 16 -10z m33 -32 c-6
-18 -28 -21 -28 -4 0 9 7 16 16 16 9 0 14 -5 12 -12z"/>
<path d="M1783 1849 c-27 -10 -37 -42 -23 -69 9 -17 8 -20 -10 -20 -16 0 -20
5 -18 22 2 11 -3 23 -9 25 -9 3 -13 -5 -13 -24 0 -55 40 -68 98 -33 38 23 47
40 38 74 -7 27 -32 37 -63 25z m42 -38 c0 -8 -8 -19 -18 -25 -22 -14 -42 11
-25 32 14 16 43 12 43 -7z"/>
<path d="M1366 1807 c-48 -27 -94 -82 -102 -123 -9 -45 35 -94 83 -94 46 0 93
45 93 89 0 30 -23 63 -51 74 -22 9 10 28 41 25 20 -2 25 -9 25 -30 1 -34 25
-65 36 -46 10 15 12 60 3 83 -7 17 -54 45 -76 45 -7 0 -31 -10 -52 -23z m15
-98 c18 -18 19 -23 6 -42 -32 -48 -77 -48 -77 -1 0 27 24 64 42 64 4 0 17 -9
29 -21z"/>
<path d="M2105 1822 c-38 -4 -54 -19 -32 -28 23 -8 22 -15 -13 -74 -35 -59
-34 -56 -16 -63 17 -7 113 151 99 162 -4 4 -21 5 -38 3z"/>
<path d="M413 1808 c-46 -10 -52 -18 -28 -38 10 -8 13 -21 9 -33 -5 -16 -3
-19 11 -14 9 4 23 7 31 7 7 0 11 6 8 13 -2 7 7 24 21 37 43 41 32 47 -52 28z
m22 -28 c-3 -5 -10 -10 -16 -10 -5 0 -9 5 -9 10 0 6 7 10 16 10 8 0 12 -4 9
-10z"/>
<path d="M885 1785 c-29 -28 -31 -38 -11 -54 30 -25 90 35 65 65 -16 20 -26
18 -54 -11z m45 -4 c0 -12 -29 -41 -41 -41 -13 0 -11 24 3 38 14 14 38 16 38
3z"/>
<path d="M1102 1767 c-28 -29 -28 -34 2 -39 16 -3 27 0 30 9 4 8 16 13 28 11
17 -2 23 -10 23 -28 0 -20 -6 -26 -27 -28 -20 -2 -28 -9 -28 -23 0 -10 7 -19
15 -19 19 0 37 -34 29 -55 -12 -30 -42 -37 -64 -15 -11 11 -18 25 -15 30 4 6
2 10 -4 10 -5 0 -16 3 -25 6 -12 4 -16 0 -16 -16 0 -34 19 -61 56 -76 30 -12
39 -12 69 0 38 16 51 47 41 97 -4 21 -1 36 9 46 24 24 19 69 -11 92 -36 28
-85 27 -112 -2z"/>
<path d="M1873 1779 c-48 -18 -38 -102 13 -115 31 -8 54 4 70 34 8 16 13 19
22 10 19 -19 14 -38 -13 -48 -32 -12 -32 -30 -2 -30 30 0 57 29 57 62 0 49
-95 106 -147 87z m64 -45 c3 -8 -1 -22 -9 -31 -20 -19 -58 -1 -58 27 0 16 7
20 30 20 19 0 33 -6 37 -16z"/>
<path d="M170 1760 c-24 -24 -25 -43 -3 -65 13 -14 14 -18 3 -25 -18 -11 -30
-3 -30 21 0 22 -15 26 -23 5 -8 -19 21 -56 43 -56 32 0 90 58 90 91 0 46 -46
63 -80 29z m60 -19 c0 -23 -14 -41 -31 -41 -19 0 -27 29 -12 43 10 10 43 8 43
-2z"/>
<path d="M0 1742 c0 -11 12 -25 28 -32 l27 -14 -27 -4 c-17 -2 -28 -9 -28 -19
0 -12 8 -14 36 -10 34 6 64 22 64 36 0 3 -23 19 -50 34 -46 26 -50 27 -50 9z"/>
<path d="M2146 1751 c-4 -7 -5 -15 -2 -18 9 -9 19 4 14 18 -4 11 -6 11 -12 0z"/>
<path d="M934 1726 c-15 -39 21 -80 54 -60 9 6 18 21 20 33 5 29 22 27 22 -4
0 -14 5 -25 10 -25 6 0 10 16 10 35 0 33 -2 35 -31 35 -26 0 -30 -3 -26 -20 7
-27 -18 -47 -38 -30 -14 12 -14 15 1 31 16 18 16 19 0 19 -9 0 -19 -6 -22 -14z"/>
<path d="M356 1715 c-4 -10 18 -32 68 -70 40 -30 77 -55 83 -55 6 0 16 20 22
44 6 24 14 51 17 61 5 13 2 16 -11 14 -11 -3 -23 -19 -29 -41 l-11 -38 -64 50
c-36 28 -66 50 -67 50 -1 0 -4 -7 -8 -15z"/>
<path d="M585 1675 c-72 -71 11 -165 145 -165 58 0 90 29 90 81 0 50 -37 84
-92 84 -48 0 -78 -30 -78 -77 0 -29 -1 -30 -22 -16 -34 22 -35 56 -4 68 16 6
26 17 26 30 0 28 -35 26 -65 -5z m176 -55 c39 -21 16 -70 -33 -70 -34 0 -54
31 -38 60 12 22 40 26 71 10z"/>
<path d="M841 1681 c-10 -17 -5 -23 39 -47 27 -15 50 -30 50 -33 -1 -3 -41
-35 -90 -71 -49 -36 -89 -68 -90 -72 0 -4 11 -10 24 -14 20 -5 43 8 122 73 54
43 99 83 101 88 1 6 -9 17 -25 26 -15 8 -48 28 -74 43 -46 27 -47 27 -57 7z"/>
<path d="M1743 1647 c-61 -36 -70 -45 -61 -60 9 -17 13 -16 64 13 30 16 54 27
54 23 2 -36 30 -216 34 -221 4 -3 14 1 23 10 14 15 14 26 -1 133 -18 121 -24
145 -35 145 -3 0 -38 -19 -78 -43z"/>
<path d="M2100 1660 c-11 -11 -20 -29 -20 -40 0 -11 9 -29 20 -40 23 -23 60
-27 60 -6 0 8 -10 16 -22 18 -15 2 -23 10 -23 23 0 11 10 24 23 30 12 5 22 15
22 22 0 20 -38 15 -60 -7z"/>
<path d="M292 1644 c-42 -29 -19 -78 35 -72 22 2 29 9 31 31 3 28 16 35 27 17
4 -6 1 -18 -6 -26 -15 -18 -8 -27 15 -18 43 17 0 84 -54 84 -14 0 -36 -7 -48
-16z m48 -34 c0 -13 -7 -20 -19 -20 -22 0 -35 15 -26 30 12 19 45 11 45 -10z"/>
<path d="M82 1623 c-6 -2 -10 -9 -7 -13 3 -5 12 -7 20 -3 8 3 15 0 15 -6 0 -6
-5 -11 -11 -11 -8 0 -8 -4 0 -14 16 -19 -5 -32 -24 -16 -12 10 -15 9 -15 -3 0
-17 24 -29 44 -21 17 7 27 65 14 82 -11 13 -15 13 -36 5z"/>
<path d="M160 1604 c-10 -11 -11 -23 -4 -42 8 -20 7 -33 -4 -50 -32 -50 32
-102 87 -71 31 18 39 54 16 79 -11 12 -13 20 -6 25 15 8 14 48 -1 63 -17 17
-73 15 -88 -4z m67 -20 c9 -23 -13 -40 -32 -24 -12 10 -13 16 -4 26 15 18 28
18 36 -2z m13 -89 c0 -32 -45 -49 -56 -20 -10 24 14 47 37 34 10 -5 19 -11 19
-14z"/>
<path d="M1568 1609 c-21 -12 -25 -88 -6 -107 30 -30 75 0 64 43 -5 18 -13 25
-31 25 -26 0 -33 14 -15 25 6 4 18 1 26 -6 19 -16 30 -4 14 16 -14 17 -28 19
-52 4z m39 -65 c8 -21 -13 -42 -28 -27 -13 13 -5 43 11 43 6 0 13 -7 17 -16z"/>
<path d="M1870 1596 c0 -13 41 -56 53 -56 4 0 7 7 7 15 0 8 7 15 16 15 14 0
14 3 4 15 -7 9 -18 14 -24 12 -6 -2 -21 0 -33 4 -17 6 -23 5 -23 -5z m50 -26
c0 -5 -2 -10 -4 -10 -3 0 -8 5 -11 10 -3 6 -1 10 4 10 6 0 11 -4 11 -10z"/>
<path d="M0 1579 c0 -18 2 -19 15 -9 8 7 15 16 15 21 0 5 -7 9 -15 9 -9 0 -15
-9 -15 -21z"/>
<path d="M1455 1591 c-3 -6 -15 -11 -25 -11 -29 0 -50 -27 -41 -52 9 -26 37
-46 48 -34 4 4 0 13 -10 20 -9 7 -17 18 -17 25 0 14 27 15 35 1 10 -17 25 -11
25 9 0 26 17 36 35 21 11 -9 12 -16 2 -30 -15 -26 -1 -38 20 -17 27 27 7 71
-34 75 -17 2 -34 -2 -38 -7z"/>
<path d="M1971 1539 c-28 -40 -32 -52 -21 -59 8 -5 18 -7 22 -4 4 3 17 0 28
-6 26 -14 24 -57 -2 -74 -24 -14 -54 5 -51 32 2 18 -23 39 -35 28 -11 -11 -3
-58 12 -75 50 -55 135 -19 136 56 0 23 -8 38 -30 55 -21 16 -27 27 -21 37 8
12 15 10 47 -8 32 -19 39 -20 51 -8 13 12 7 19 -41 46 -31 17 -57 31 -58 31
-2 0 -18 -23 -37 -51z"/>
<path d="M425 1568 c-51 -27 -59 -75 -19 -107 25 -20 25 -20 4 -31 -26 -14
-50 2 -43 29 6 23 -16 39 -28 20 -24 -38 10 -89 61 -89 21 0 42 12 75 43 55
53 61 93 19 126 -30 24 -40 25 -69 9z m61 -42 c9 -24 -15 -58 -39 -54 -25 3
-34 32 -17 53 16 19 49 19 56 1z"/>
<path d="M962 1527 c-34 -36 -53 -92 -42 -121 19 -51 103 -43 116 10 8 31 -4
54 -34 70 -16 8 -19 13 -10 22 19 19 38 14 48 -13 12 -32 30 -32 30 -2 0 53
-69 75 -108 34z m37 -71 c17 -20 -3 -56 -29 -56 -15 0 -20 7 -20 28 0 43 25
57 49 28z"/>
<path d="M1281 1531 c-28 -28 -26 -56 4 -86 27 -28 37 -30 66 -15 16 9 19 7
19 -10 0 -24 -25 -37 -43 -22 -8 7 -18 8 -27 1 -13 -8 -12 -12 4 -24 26 -19
46 -19 75 1 20 15 23 23 19 66 -9 88 -71 135 -117 89z m69 -32 c13 -23 -2 -49
-27 -49 -15 0 -33 38 -26 58 8 19 41 14 53 -9z"/>
<path d="M50 1503 c0 -6 -11 -8 -25 -5 -21 4 -25 1 -25 -20 0 -14 9 -33 21
-44 17 -16 22 -16 29 -4 6 8 10 18 10 23 0 4 7 7 15 7 20 0 19 7 -5 32 -11 12
-20 17 -20 11z m-15 -34 c11 -17 -1 -21 -15 -4 -8 9 -8 15 -2 15 6 0 14 -5 17
-11z"/>
<path d="M540 1495 c-11 -13 -8 -15 20 -13 44 4 50 -18 10 -39 -75 -42 -77
-56 -7 -68 43 -8 50 6 10 21 l-28 9 38 22 c38 23 47 49 25 71 -17 17 -53 15
-68 -3z"/>
<path d="M2130 1503 c0 -5 7 -17 15 -27 14 -19 15 -19 15 7 0 17 -5 27 -15 27
-8 0 -15 -3 -15 -7z"/>
<path d="M1157 1494 c-5 -5 30 -101 43 -117 3 -4 19 6 35 23 30 32 28 55 -3
27 -25 -23 -27 -22 -42 24 -14 41 -23 53 -33 43z"/>
<path d="M1462 1478 c-7 -7 -12 -17 -12 -24 0 -6 -7 -14 -15 -18 -19 -7 -19
-40 -1 -56 23 -18 61 -8 64 17 2 12 10 27 18 33 18 16 18 25 -2 44 -19 19 -36
20 -52 4z m43 -17 c7 -12 -12 -24 -25 -16 -11 7 -4 25 10 25 5 0 11 -4 15 -9z
m-27 -58 c2 -8 -5 -13 -17 -13 -12 0 -21 6 -21 16 0 18 31 15 38 -3z"/>
<path d="M1694 1476 c-4 -12 -11 -12 -29 -4 -53 24 -95 -41 -58 -90 26 -35 49
-39 77 -13 13 13 30 19 39 16 28 -12 57 13 57 48 0 18 -5 38 -12 45 -17 17
-67 15 -74 -2z m59 -30 c8 -19 -15 -37 -32 -26 -17 10 -7 40 13 40 7 0 16 -6
19 -14z m-76 -22 c2 -7 -4 -19 -13 -29 -15 -15 -19 -15 -32 -1 -20 20 -8 48
20 44 12 -2 23 -8 25 -14z"/>
<path d="M660 1440 c-24 -24 -25 -41 -5 -80 45 -87 155 -93 155 -8 0 54 -86
82 -111 36 -10 -19 -12 -20 -21 -4 -14 25 -2 49 22 43 25 -6 48 18 24 27 -27
10 -43 7 -64 -14z m110 -75 c16 -19 6 -45 -18 -45 -25 0 -44 23 -36 44 8 20
38 21 54 1z"/>
<path d="M90 1425 c-22 -23 -22 -24 -4 -49 21 -29 34 -33 34 -12 0 22 19 29
36 15 18 -15 13 -34 -9 -34 -20 0 -24 -19 -5 -23 26 -5 51 23 44 51 -7 30 -40
44 -62 26 -22 -18 -30 -2 -10 20 26 28 3 34 -24 6z"/>
<path d="M1084 1442 c-15 -9 -27 -159 -14 -167 6 -3 23 2 40 12 29 16 30 16
43 -1 18 -25 41 -12 27 14 -6 12 -7 21 0 25 14 9 1 35 -15 29 -9 -4 -21 9 -34
33 -30 56 -35 63 -47 55z m30 -88 c9 -24 7 -31 -9 -38 -11 -4 -15 2 -15 24 0
32 14 40 24 14z"/>
<path d="M250 1430 c0 -5 9 -15 20 -22 28 -18 25 -24 -12 -32 -41 -8 -58 -23
-58 -52 0 -28 33 -48 66 -40 35 9 29 26 -8 24 -24 -2 -33 1 -33 12 0 15 29 32
79 47 42 12 41 25 -4 51 -44 25 -50 26 -50 12z"/>
<path d="M847 1423 c-10 -9 -9 -103 1 -103 4 0 14 6 21 13 11 10 14 10 18 0 8
-22 21 -14 21 12 0 14 -5 25 -9 25 -5 0 -17 13 -28 30 -10 16 -21 27 -24 23z
m23 -64 c0 -5 -4 -9 -10 -9 -5 0 -10 7 -10 16 0 8 5 12 10 9 6 -3 10 -10 10
-16z"/>
<path d="M2059 1381 c-19 -20 -29 -40 -29 -59 0 -37 52 -108 98 -135 l32 -19
0 25 c0 13 -7 30 -15 37 -8 7 -15 20 -15 30 0 10 7 23 15 30 16 14 21 50 6 50
-5 0 -20 -13 -34 -29 l-24 -30 -11 25 c-16 33 -5 54 28 54 38 0 58 25 31 39
-32 17 -50 13 -82 -18z"/>
<path d="M363 1358 c-35 -45 -21 -79 40 -103 83 -31 149 -1 128 59 -16 44
-143 77 -168 44z m105 -29 c50 -17 54 -59 6 -59 -29 0 -89 23 -98 39 -19 30
33 41 92 20z"/>
<path d="M1762 1363 c-17 -6 -42 -57 -42 -83 0 -35 53 -80 94 -80 40 0 76 28
76 60 0 27 16 25 35 -4 20 -29 10 -56 -21 -56 -13 0 -28 -9 -34 -20 -9 -17 -7
-20 15 -26 50 -12 103 48 89 102 -7 29 -65 81 -110 100 -33 14 -78 17 -102 7z
m72 -43 c30 -11 36 -50 11 -70 -12 -10 -21 -10 -45 0 -34 14 -47 44 -30 65 15
18 29 19 64 5z"/>
<path d="M1252 1327 c-18 -18 -32 -37 -32 -41 0 -5 13 -23 29 -42 30 -34 40
-32 54 9 14 39 75 7 62 -33 -5 -15 -14 -20 -33 -18 -34 4 -37 -26 -4 -30 30
-5 72 33 72 65 0 50 -79 85 -110 48 -9 -11 -16 -13 -24 -5 -7 7 -1 19 17 38
24 25 27 42 7 42 -3 0 -20 -15 -38 -33z"/>
<path d="M1436 1338 c-13 -13 -27 -33 -31 -45 -5 -20 -3 -23 19 -23 18 0 25 6
28 23 2 16 10 22 28 22 34 0 39 -33 10 -55 -26 -20 -18 -44 11 -37 41 11 67
-53 30 -73 -21 -10 -51 -4 -51 11 0 5 -11 9 -25 9 -30 0 -32 -13 -5 -40 29
-29 90 -27 118 3 28 30 29 80 2 107 -12 12 -20 33 -20 54 0 62 -66 87 -114 44z"/>
<path d="M0 1320 c0 -11 6 -20 14 -20 8 0 24 -12 35 -26 27 -34 12 -69 -25
-61 -20 3 -24 0 -24 -19 0 -20 5 -24 29 -24 47 0 76 31 76 80 0 34 -6 47 -28
66 -35 30 -77 32 -77 4z"/>
<path d="M562 1263 c-13 -46 -18 -81 -12 -87 17 -17 38 3 44 41 13 71 16 71
112 -5 85 -66 103 -73 104 -35 0 15 -193 163 -213 163 -9 0 -22 -28 -35 -77z"/>
<path d="M1635 1330 c-3 -5 -17 -10 -30 -10 -12 0 -26 -7 -29 -16 -8 -20 11
-54 29 -54 20 0 19 10 -2 26 -23 16 -8 32 16 17 16 -10 20 -9 24 8 3 10 13 19
22 19 13 0 15 -6 10 -32 -7 -31 -6 -32 10 -16 26 24 13 68 -20 68 -13 0 -27
-4 -30 -10z"/>
<path d="M886 1289 c-47 -37 -26 -110 36 -125 22 -5 33 0 57 24 41 41 62 27
32 -22 -20 -32 -21 -37 -6 -42 9 -4 17 -5 19 -3 1 2 14 24 28 49 l26 45 -48
32 c-51 34 -60 33 -60 -2 0 -47 -61 -58 -75 -15 -8 27 2 40 30 40 12 0 25 6
28 14 13 32 -28 35 -67 5z"/>
<path d="M136 1254 c-19 -18 -20 -38 -6 -65 10 -18 50 -26 64 -12 3 4 21 7 39
7 29 1 32 4 35 33 2 24 -2 34 -17 43 -17 9 -21 8 -21 -5 0 -8 5 -15 10 -15 14
0 13 -27 -2 -36 -6 -4 -16 0 -23 9 -15 21 -25 22 -25 2 0 -18 -36 -20 -46 -3
-4 6 0 16 9 23 18 13 23 35 8 35 -5 0 -17 -7 -25 -16z"/>
<path d="M1101 1256 c-10 -11 -7 -17 11 -30 l22 -16 -67 -68 c-65 -65 -67 -69
-49 -85 17 -16 23 -12 112 78 75 75 91 97 82 108 -7 8 -23 12 -41 9 -16 -2
-32 1 -35 7 -10 15 -21 14 -35 -3z"/>
<path d="M1990 1250 c0 -4 9 -10 21 -13 21 -6 21 -6 -6 -41 -15 -20 -23 -36
-17 -36 14 0 64 68 58 79 -7 11 -56 21 -56 11z"/>
<path d="M307 1244 c-11 -11 -8 -42 4 -50 8 -4 9 0 4 15 -3 12 -2 21 3 21 6 0
12 -6 15 -12 3 -10 7 -10 19 0 12 10 18 10 23 1 4 -6 1 -15 -6 -20 -7 -4 -10
-11 -7 -14 4 -4 11 -4 17 0 13 7 15 42 4 48 -17 10 -69 17 -76 11z"/>
<path d="M1662 1189 c-29 -50 -19 -65 14 -24 l24 30 0 -30 c0 -41 25 -75 55
-75 29 0 49 32 41 66 -9 35 -26 29 -24 -8 2 -24 -1 -33 -12 -33 -15 0 -32 29
-47 79 -12 42 -25 41 -51 -5z"/>
<path d="M451 1196 c-5 -13 -17 -26 -25 -29 -23 -9 -20 -44 6 -58 18 -10 24
-8 37 8 9 10 24 22 34 26 20 7 23 47 5 65 -19 19 -48 14 -57 -12z m49 -16 c0
-11 -7 -20 -15 -20 -8 0 -15 9 -15 20 0 11 7 20 15 20 8 0 15 -9 15 -20z m-45
-50 c-5 -8 -11 -8 -17 -2 -6 6 -7 16 -3 22 5 8 11 8 17 2 6 -6 7 -16 3 -22z"/>
<path d="M590 1144 c-80 -47 -92 -61 -63 -70 10 -3 26 -10 36 -15 24 -13 34
-3 20 20 -10 15 -3 22 48 50 49 27 58 35 48 47 -6 8 -12 14 -13 13 0 0 -35
-20 -76 -45z"/>
<path d="M277 1131 c-15 -23 -27 -42 -27 -45 0 -2 14 -6 30 -10 40 -7 49 -32
22 -59 -17 -17 -23 -18 -36 -7 -9 7 -16 21 -16 31 0 11 -7 19 -15 19 -25 0
-18 -46 12 -69 30 -24 58 -20 86 11 25 29 21 63 -10 88 -19 15 -23 24 -16 31
8 8 18 7 34 -5 28 -19 49 -21 49 -3 0 7 -17 22 -37 32 -21 11 -41 21 -44 23
-3 1 -18 -15 -32 -37z"/>
<path d="M2062 1158 c-15 -15 -16 -45 -2 -53 15 -9 12 -25 -4 -25 -7 0 -17 10
-21 23 -6 19 -8 20 -12 4 -14 -52 37 -64 80 -19 15 15 27 35 27 43 0 20 -20
39 -40 39 -9 0 -21 -5 -28 -12z m48 -23 c0 -16 -27 -32 -37 -22 -3 4 -3 13 0
22 8 20 37 20 37 0z"/>
<path d="M1303 1150 c-16 -6 -23 -18 -23 -35 0 -55 112 -57 118 -2 3 21 -2 29
-23 37 -31 12 -42 12 -72 0z m62 -20 c36 -14 22 -30 -25 -30 -59 0 -61 20 -3
39 1 1 14 -3 28 -9z"/>
<path d="M110 1135 c-9 -11 -16 -13 -24 -5 -14 14 -49 13 -64 -2 -17 -17 -15
-73 4 -88 11 -10 23 -11 42 -4 20 8 33 7 50 -4 50 -32 102 32 71 87 -17 31
-60 39 -79 16z m44 -21 c20 -8 21 -43 1 -50 -24 -10 -47 14 -34 37 11 21 11
21 33 13z m-78 -15 c3 -6 0 -17 -7 -25 -18 -17 -44 -2 -36 20 7 18 33 21 43 5z"/>
<path d="M826 1118 c-21 -30 -20 -50 5 -82 26 -33 81 -36 103 -5 l14 21 12
-22 c14 -25 5 -37 -29 -42 -32 -4 -38 -24 -9 -32 33 -9 72 23 76 63 3 27 -4
40 -41 77 -36 36 -51 44 -80 44 -26 0 -40 -6 -51 -22z m78 -21 c13 -10 16 -20
12 -35 -9 -28 -40 -28 -60 -1 -28 40 7 66 48 36z"/>
<path d="M1591 1121 c-8 -14 -7 -20 4 -25 8 -3 15 -12 15 -21 0 -21 -28 -19
-32 3 -2 11 -6 13 -11 5 -12 -19 21 -45 44 -33 24 13 24 28 2 52 -17 19 -16
19 12 13 29 -6 29 -6 11 9 -26 21 -33 20 -45 -3z"/>
<path d="M1938 1126 c-22 -16 -23 -26 -3 -26 11 0 15 -12 15 -45 0 -25 5 -45
10 -45 6 0 10 28 10 65 0 68 -3 73 -32 51z"/>
<path d="M1240 1095 l0 -35 -52 21 c-29 12 -59 23 -65 26 -7 3 -13 0 -13 -6 0
-11 73 -48 128 -65 21 -7 22 -5 22 43 0 28 -4 51 -10 51 -5 0 -10 -16 -10 -35z"/>
<path d="M1810 1095 c0 -16 -6 -25 -15 -25 -8 0 -15 -4 -15 -10 0 -5 6 -10 14
-10 8 0 17 -6 19 -12 4 -10 8 -10 14 -1 4 6 26 13 48 15 l40 3 -44 33 c-53 39
-61 40 -61 7z m45 -15 c3 -5 -1 -10 -9 -10 -9 0 -16 5 -16 10 0 6 4 10 9 10 6
0 13 -4 16 -10z"/>
<path d="M718 1073 l-37 -37 -24 22 -24 22 -18 -20 c-18 -20 -18 -21 3 -43 17
-18 19 -26 10 -35 -9 -9 -8 -16 5 -29 13 -14 19 -15 29 -5 10 10 26 -1 75 -50
57 -57 64 -61 79 -47 14 15 14 26 -5 124 -19 98 -32 135 -50 135 -3 0 -23 -17
-43 -37z m51 -108 c1 -17 -2 -17 -26 7 -27 27 -27 27 -7 49 l19 21 6 -28 c4
-16 7 -38 8 -49z"/>
<path d="M1462 1045 c-60 -50 -69 -129 -18 -154 25 -12 31 -11 55 6 14 11 27
32 29 47 4 31 -21 66 -47 66 -13 1 -13 3 3 15 27 21 35 19 46 -10 12 -32 30
-32 30 -1 0 24 -32 56 -56 56 -7 0 -26 -11 -42 -25z m35 -81 c7 -19 -30 -59
-46 -50 -12 8 -15 49 -4 59 12 13 44 7 50 -9z"/>
<path d="M1660 1057 c-33 -16 -40 -70 -12 -88 12 -8 17 -20 14 -35 -6 -32 14
-54 49 -54 49 0 78 52 44 80 -9 8 -12 22 -8 41 4 21 0 36 -12 49 -21 23 -40
25 -75 7z m57 -33 c3 -8 -2 -23 -11 -32 -15 -15 -17 -15 -32 0 -21 21 -11 48
16 48 11 0 23 -7 27 -16z m16 -88 c8 -20 -20 -43 -35 -28 -14 14 -3 42 16 42
7 0 16 -6 19 -14z"/>
<path d="M394 1039 c-26 -29 -26 -119 0 -148 25 -28 70 -27 90 1 33 47 10 101
-43 101 -24 0 -31 4 -29 16 4 19 38 27 48 11 4 -7 15 -10 24 -8 15 3 15 5 1
26 -21 28 -65 29 -91 1z m64 -85 c14 -24 3 -54 -19 -54 -23 0 -41 39 -27 58
14 17 35 15 46 -4z"/>
<path d="M1319 1044 c-12 -15 -10 -16 19 -10 47 11 42 -17 -9 -50 -45 -28 -43
-40 9 -50 21 -4 32 -3 32 5 0 6 -9 11 -20 11 -28 0 -25 12 10 32 20 12 30 25
30 41 0 37 -46 50 -71 21z"/>
<path d="M1086 1024 c-9 -8 -16 -25 -16 -37 0 -13 -9 -26 -22 -32 -58 -26 -1
-120 59 -99 22 7 29 17 31 44 2 20 12 40 23 48 26 18 24 57 -3 76 -29 20 -52
20 -72 0z m61 -30 c5 -14 -11 -33 -28 -34 -10 0 -20 31 -13 41 9 15 34 10 41
-7z m-42 -74 c12 -37 -20 -55 -45 -25 -10 12 -10 18 0 30 17 21 37 19 45 -5z"/>
<path d="M2076 1009 c-9 -47 -8 -48 24 -46 36 2 38 17 6 52 l-23 25 -7 -31z"/>
<path d="M565 1018 c-48 -25 -65 -40 -59 -49 4 -6 15 -4 30 6 32 21 44 12 45
-33 1 -20 4 -48 8 -62 13 -45 23 -3 16 63 -9 79 -14 89 -40 75z"/>
<path d="M1823 1008 c-67 -32 -44 -158 29 -158 27 0 22 35 -7 48 -27 12 -33
40 -13 60 24 24 50 11 112 -53 39 -41 70 -65 84 -65 21 0 22 4 22 90 0 89 0
90 -25 90 -24 0 -25 -3 -25 -57 l0 -58 -36 43 c-36 42 -81 73 -106 71 -7 0
-23 -5 -35 -11z"/>
<path d="M1212 997 c-11 -13 -19 -153 -9 -163 3 -3 20 2 37 13 29 17 32 17 44
1 17 -24 32 -9 31 32 0 25 -5 34 -15 33 -9 -2 -27 18 -43 47 -16 28 -30 50
-31 50 -2 0 -8 -6 -14 -13z m42 -108 c-13 -21 -31 -8 -26 18 5 24 6 25 18 8 7
-10 11 -22 8 -26z"/>
<path d="M140 986 c-19 -23 -8 -61 18 -64 19 -3 21 -6 11 -18 -10 -13 -14 -12
-30 2 -17 16 -19 16 -19 1 0 -26 33 -39 58 -21 26 18 39 78 22 99 -16 19 -44
19 -60 1z m47 -22 c8 -21 -13 -42 -28 -27 -13 13 -5 43 11 43 6 0 13 -7 17
-16z"/>
<path d="M273 953 c-27 -5 -63 -48 -63 -74 0 -28 38 -24 50 5 11 30 23 38 44
30 24 -9 20 -55 -4 -61 -26 -7 -22 -37 5 -39 11 -1 25 -2 32 -3 7 -1 17 -10
23 -21 23 -43 -29 -80 -64 -45 -17 17 -42 20 -51 5 -10 -16 42 -60 70 -60 33
0 81 24 89 45 13 34 6 75 -16 97 -14 14 -21 32 -20 48 5 47 -42 83 -95 73z"/>
<path d="M2110 930 c-28 -28 -25 -64 6 -89 37 -29 44 -26 43 17 -1 20 -3 29
-6 20 -6 -22 -33 -12 -33 13 0 10 6 19 14 19 12 0 26 20 26 36 0 12 -33 1 -50
-16z"/>
<path d="M942 930 c-42 -10 -48 -16 -32 -35 7 -8 10 -21 7 -30 -4 -8 -2 -17 3
-20 6 -4 10 -1 10 5 0 7 7 10 15 6 9 -3 15 0 15 8 0 7 11 23 25 36 38 36 24
46 -43 30z m10 -32 c-6 -6 -15 -8 -19 -4 -4 4 -1 11 7 16 19 12 27 3 12 -12z"/>
<path d="M11 916 c-7 -8 -11 -34 -9 -58 3 -42 4 -43 41 -46 68 -6 102 53 57
98 -23 23 -72 26 -89 6z m69 -31 c19 -23 4 -47 -27 -43 -31 3 -44 35 -21 49
19 13 34 11 48 -6z"/>
<path d="M1574 895 c-4 -8 -4 -24 -1 -36 4 -15 1 -19 -11 -17 -11 3 -16 12
-15 26 2 12 -2 22 -7 22 -6 0 -10 -13 -10 -29 0 -34 23 -46 70 -36 36 8 52 27
48 57 -2 18 -10 24 -36 26 -22 2 -34 -2 -38 -13z m54 -22 c-5 -26 -38 -29 -38
-4 0 15 6 21 21 21 14 0 19 -5 17 -17z"/>
<path d="M682 874 c-26 -18 -29 -46 -7 -64 12 -10 13 -15 3 -21 -17 -10 -28
-2 -28 22 0 10 -4 19 -10 19 -14 0 -13 -43 2 -58 20 -20 48 -14 79 17 34 34
38 75 10 91 -25 13 -22 13 -49 -6z m48 -28 c0 -24 -26 -38 -39 -22 -9 11 -8
17 4 30 18 17 35 13 35 -8z"/>
<path d="M1400 855 c-17 -21 -8 -50 18 -53 12 -2 22 -9 22 -17 0 -16 25 -26
45 -19 17 7 30 47 20 63 -3 6 -17 11 -30 11 -12 0 -25 7 -29 15 -7 19 -30 19
-46 0z m38 -23 c2 -7 -3 -12 -12 -12 -9 0 -16 7 -16 16 0 17 22 14 28 -4z m52
-25 c0 -8 -3 -17 -7 -20 -9 -9 -34 13 -27 24 8 14 34 11 34 -4z"/>
<path d="M496 853 c-12 -12 -6 -21 26 -41 l32 -21 -29 -6 c-55 -13 -65 -16
-80 -31 -22 -22 -19 -71 4 -84 40 -21 109 -4 84 21 -7 7 -17 8 -29 1 -25 -12
-44 -5 -44 18 0 23 21 35 78 45 43 7 80 32 65 45 -23 19 -101 58 -107 53z"/>
<path d="M860 842 c0 -14 24 -38 77 -77 l78 -57 17 59 c22 71 22 73 3 73 -8 0
-19 -17 -25 -40 -12 -45 -11 -45 -80 9 -73 57 -70 56 -70 33z"/>
<path d="M168 839 c-15 -8 -16 -13 -6 -29 9 -15 10 -22 1 -31 -14 -14 -36 -2
-29 17 6 16 -10 29 -19 14 -9 -15 3 -47 21 -54 9 -3 25 -1 36 5 16 8 19 17 14
40 -6 30 7 41 18 14 3 -8 10 -15 15 -15 7 0 6 9 -1 25 -12 27 -23 30 -50 14z"/>
<path d="M1703 825 c-29 -20 -31 -75 -5 -98 37 -34 101 -14 106 33 1 14 5 26
9 28 20 7 27 -1 27 -33 0 -24 5 -35 15 -35 11 0 15 12 15 49 0 46 -1 49 -31
55 -74 15 -91 6 -67 -34 10 -16 10 -23 -4 -37 -14 -14 -22 -15 -43 -5 -29 13
-31 24 -9 46 8 9 14 23 12 31 -3 14 -6 14 -25 0z"/>
<path d="M1919 809 c-21 -21 -22 -24 -6 -27 10 -2 24 2 32 8 20 16 45 5 45
-20 0 -19 -10 -24 -37 -21 -21 3 -15 -26 10 -42 18 -12 20 -19 11 -34 -17 -28
-49 -28 -62 2 -6 14 -16 25 -22 25 -17 0 -11 -46 8 -63 19 -18 68 -22 89 -9
20 12 32 56 21 75 -6 12 -5 22 6 33 33 32 11 80 -40 90 -25 5 -37 1 -55 -17z"/>
<path d="M1145 808 c-27 -15 -35 -28 -35 -60 0 -16 8 -33 22 -42 19 -14 19
-16 5 -22 -24 -9 -50 3 -44 20 3 8 0 20 -8 26 -23 19 -32 -36 -10 -60 28 -31
69 -25 115 16 48 43 55 92 18 118 -26 19 -36 19 -63 4z m50 -29 c4 -5 4 -21 1
-35 -5 -19 -12 -25 -29 -22 -28 4 -35 38 -11 55 22 16 31 16 39 2z"/>
<path d="M1305 810 c-3 -6 7 -18 24 -28 17 -9 31 -20 31 -24 0 -3 -18 -9 -41
-13 -73 -12 -101 -64 -57 -105 25 -23 60 -26 78 -5 17 21 3 37 -20 22 -16 -9
-23 -9 -36 5 -25 24 -5 44 58 58 50 10 78 25 78 40 0 6 -92 60 -103 60 -3 0
-9 -5 -12 -10z"/>
<path d="M751 776 l-33 -34 27 -36 c32 -43 42 -45 55 -11 15 40 70 27 70 -17
0 -18 -5 -20 -44 -22 -27 -1 -31 -23 -5 -31 31 -10 73 24 77 62 2 24 -3 36
-24 52 -29 23 -55 21 -86 -6 -29 -25 -33 6 -4 36 23 24 26 41 6 41 -3 0 -21
-15 -39 -34z"/>
<path d="M2084 791 c-39 -24 -47 -36 -39 -60 9 -28 33 -33 71 -15 38 18 54 55
34 79 -16 20 -29 19 -66 -4z m56 -17 c0 -22 -29 -43 -57 -44 -33 0 -28 17 10
40 39 24 47 25 47 4z"/>
<path d="M1577 793 c-12 -11 -8 -52 6 -60 8 -4 16 -16 20 -26 15 -40 67 -27
67 17 0 21 -1 20 -19 -3 -19 -25 -36 -16 -25 14 5 12 2 16 -12 13 -13 -2 -19
3 -19 17 0 15 6 19 24 17 15 -2 21 0 17 7 -8 12 -49 15 -59 4z"/>
<path d="M17 729 c-12 -7 -17 -23 -17 -55 0 -37 4 -46 23 -53 27 -10 39 17 13
31 -9 5 -16 18 -16 28 0 36 41 23 86 -25 59 -65 74 -61 74 20 0 51 -3 65 -15
65 -11 0 -15 -11 -15 -42 l0 -42 -37 36 c-43 41 -70 52 -96 37z"/>
<path d="M1500 710 c-16 -29 -12 -50 9 -50 28 0 36 -19 18 -38 -15 -14 -17
-14 -23 1 -3 9 -13 17 -20 17 -12 0 -12 -4 -4 -20 21 -39 86 -16 78 27 -2 10
-14 23 -26 29 -28 14 -12 29 19 19 15 -5 20 -3 17 6 -2 7 -16 16 -31 20 -21 6
-29 3 -37 -11z"/>
<path d="M1430 710 c-8 -5 -23 -11 -32 -14 -24 -7 -23 -26 2 -26 24 0 24 0 5
-70 -9 -35 -11 -58 -5 -64 15 -15 20 -4 45 85 27 96 25 112 -15 89z"/>
<path d="M578 688 c-20 -12 -42 -34 -49 -50 -25 -61 53 -106 101 -58 24 24 25
48 4 79 -16 22 -16 22 12 19 25 -3 29 -7 26 -30 -3 -36 15 -45 29 -14 10 20 9
30 -5 51 -21 32 -66 33 -118 3z m42 -61 c0 -33 -55 -51 -67 -22 -3 9 2 24 12
35 13 15 22 17 36 9 11 -5 19 -15 19 -22z"/>
<path d="M930 695 c-15 -17 1 -34 53 -56 15 -6 27 -15 27 -19 0 -4 -27 -13
-59 -19 -80 -16 -111 -41 -111 -91 0 -30 6 -43 26 -59 33 -26 84 -27 115 -2
l23 18 -22 12 c-16 9 -26 9 -40 0 -23 -14 -50 -6 -59 17 -10 27 30 55 103 70
75 16 121 47 94 64 -110 68 -138 80 -150 65z"/>
<path d="M2152 680 c0 -19 2 -27 5 -17 2 9 2 25 0 35 -3 9 -5 1 -5 -18z"/>
<path d="M295 666 c-76 -17 -81 -23 -50 -56 23 -24 24 -28 10 -40 -12 -10 -13
-16 -4 -26 9 -12 15 -12 27 -2 8 7 22 13 31 13 9 0 15 6 13 14 -2 8 15 33 38
56 56 57 42 66 -65 41z m13 -42 c-9 -9 -21 -13 -27 -9 -16 10 -3 25 22 25 20
0 20 -1 5 -16z"/>
<path d="M1642 659 c-67 -33 -102 -74 -102 -118 0 -70 53 -111 116 -91 67 23
94 92 54 143 -27 34 -26 37 15 37 39 0 55 -21 38 -49 -11 -17 3 -61 18 -61 12
0 39 55 39 79 0 11 -12 33 -26 50 -21 26 -33 31 -67 31 -23 0 -61 -10 -85 -21z
m42 -96 c15 -38 -47 -83 -85 -63 -26 15 -24 39 7 71 22 23 30 26 50 17 12 -6
25 -17 28 -25z"/>
<path d="M1195 636 c-23 -16 -13 -65 20 -96 45 -43 87 14 49 68 -23 33 -48 44
-69 28z m65 -77 c0 -26 -18 -20 -43 13 -13 17 -17 33 -13 45 7 16 10 15 32
-10 13 -15 24 -37 24 -48z"/>
<path d="M390 620 c-6 -11 -8 -25 -5 -30 4 -6 -1 -17 -9 -26 -33 -32 -13 -74
35 -74 33 0 53 23 46 51 -3 12 0 30 6 40 16 25 -2 53 -36 57 -18 2 -29 -3 -37
-18z m56 -11 c10 -17 -13 -36 -27 -22 -12 12 -4 33 11 33 5 0 12 -5 16 -11z
m-16 -80 c0 -12 -7 -19 -20 -19 -22 0 -29 35 -7 43 18 6 27 -2 27 -24z"/>
<path d="M2028 620 c-8 -12 -24 -20 -38 -20 -34 0 -50 -17 -50 -52 0 -32 31
-68 58 -68 20 0 52 29 52 48 0 6 6 9 14 6 26 -10 56 15 56 45 0 53 -66 83 -92
41z m60 -33 c2 -12 -3 -17 -17 -17 -12 0 -21 6 -21 13 0 31 32 34 38 4z m-70
-43 c2 -12 -4 -24 -12 -27 -20 -8 -47 19 -39 39 8 22 47 13 51 -12z"/>
<path d="M776 583 c-28 -14 -28 -16 -12 -29 10 -7 15 -17 11 -23 -3 -6 -3 -11
2 -11 16 0 28 15 40 48 13 37 5 40 -41 15z m24 -13 c0 -5 -5 -10 -11 -10 -5 0
-7 5 -4 10 3 6 8 10 11 10 2 0 4 -4 4 -10z"/>
<path d="M25 560 c4 -13 1 -22 -9 -26 -20 -7 -21 -34 -2 -34 7 0 27 5 45 11
32 11 43 39 16 39 -9 0 -18 7 -21 15 -9 24 -37 19 -29 -5z"/>
<path d="M153 570 c-12 -5 -24 -19 -28 -31 -4 -13 -18 -32 -31 -42 -54 -42 -5
-116 60 -91 24 9 1 33 -24 27 -24 -6 -38 23 -21 40 9 9 16 9 31 -1 23 -14 37
2 20 23 -18 21 -4 47 22 43 15 -2 23 -10 23 -23 1 -50 35 -55 35 -5 0 19 -9
35 -26 49 -30 23 -30 23 -61 11z"/>
<path d="M1066 565 c-19 -20 -22 -79 -3 -73 6 3 13 17 15 31 2 20 9 27 24 27
17 0 20 -5 15 -29 -7 -35 -1 -43 23 -29 25 16 52 3 48 -24 -2 -17 -10 -23 -30
-23 -33 0 -47 -13 -28 -25 39 -25 90 9 90 58 0 33 -16 52 -45 52 -11 0 -24 10
-30 23 -12 27 -56 34 -79 12z"/>
<path d="M1807 463 c-26 -65 -47 -124 -47 -130 0 -10 25 -13 90 -13 83 0 90 1
90 20 0 18 -7 20 -60 20 -35 0 -60 4 -60 11 0 5 18 52 40 104 22 52 40 96 40
99 0 4 -10 6 -23 6 -20 0 -29 -15 -70 -117z"/>
<path d="M682 552 l-32 -18 22 -22 c21 -20 21 -23 6 -38 -24 -25 -52 -11 -44
22 5 19 3 25 -6 22 -18 -6 -22 -46 -8 -64 16 -18 64 -18 80 1 7 9 10 27 7 45
-8 38 9 49 25 16 11 -26 19 -31 31 -20 6 6 -32 74 -41 74 -4 -1 -22 -9 -40
-18z"/>
<path d="M487 533 c-3 -5 -8 -29 -11 -55 -6 -39 -4 -48 11 -57 21 -11 57 4 47
20 -4 6 -10 6 -19 -1 -9 -8 -15 -8 -20 0 -8 13 4 32 16 25 5 -4 9 -2 9 4 0 5
-4 13 -10 16 -14 9 -13 35 2 35 6 0 20 -7 30 -17 15 -13 18 -14 18 -2 0 8 -5
20 -12 27 -13 13 -54 16 -61 5z"/>
<path d="M1295 479 c-60 -63 -62 -75 -10 -81 25 -2 29 -7 27 -25 -4 -29 28
-32 35 -3 3 11 12 20 19 20 17 0 18 16 3 26 -7 4 -8 27 -4 65 4 35 3 59 -2 59
-6 0 -36 -27 -68 -61z m30 -38 c-4 -12 -12 -18 -21 -14 -13 5 -13 8 2 24 20
23 28 18 19 -10z"/>
<path d="M1442 509 c-28 -16 -52 -34 -52 -39 0 -18 17 -18 46 1 16 10 32 19
36 19 4 0 9 -26 13 -57 9 -80 17 -104 33 -95 9 7 10 26 1 93 -7 46 -15 89 -18
96 -5 9 -21 4 -59 -18z"/>
<path d="M2105 516 c-22 -7 -39 -16 -37 -19 1 -4 2 -11 2 -16 0 -4 20 -4 45 2
33 8 45 15 45 29 0 20 0 20 -55 4z"/>
<path d="M276 489 c-17 -13 -26 -30 -26 -48 0 -54 69 -83 109 -47 32 29 37 -2
6 -35 -25 -25 -26 -29 -11 -35 17 -7 76 39 76 59 0 15 -49 77 -61 77 -5 0 -14
-11 -19 -25 -11 -29 -41 -33 -61 -9 -17 20 0 49 29 49 28 0 40 14 22 25 -22
14 -35 12 -64 -11z"/>
<path d="M3 450 c0 -16 4 -27 9 -24 4 3 8 12 8 20 0 8 5 14 11 14 6 0 8 -9 4
-22 -7 -22 -6 -22 11 -6 14 14 15 20 4 32 -22 27 -47 20 -47 -14z"/>
<path d="M2124 465 c-4 -8 -4 -22 0 -30 6 -17 36 -21 36 -5 0 6 -7 10 -15 10
-20 0 -19 10 3 26 16 13 16 13 -1 14 -10 0 -20 -7 -23 -15z"/>
<path d="M1887 463 c-18 -17 -6 -53 23 -68 54 -28 95 -11 88 37 -2 18 -10 24
-35 26 -28 3 -33 -1 -39 -23 -5 -21 -9 -23 -21 -13 -13 10 -13 13 1 24 9 6 16
14 16 18 0 8 -25 8 -33 -1z m91 -40 c-5 -26 -38 -29 -38 -4 0 15 6 21 21 21
14 0 19 -5 17 -17z"/>
<path d="M726 438 c-36 -50 -7 -104 50 -95 22 4 37 1 45 -9 27 -32 79 -1 79
48 0 33 -23 52 -55 45 -18 -3 -29 1 -36 14 -14 27 -64 25 -83 -3z m63 -27 c8
-14 7 -22 -4 -31 -19 -16 -45 -6 -45 18 0 36 33 45 49 13z m81 -30 c0 -11 -4
-22 -8 -25 -14 -9 -35 12 -29 28 9 23 37 20 37 -3z"/>
<path d="M986 410 c-27 -42 -26 -45 19 -52 25 -4 31 -40 11 -57 -20 -17 -46
-7 -46 18 0 24 -26 35 -35 13 -8 -22 27 -66 57 -70 65 -8 94 73 42 114 -24 20
-26 24 -11 30 10 3 29 -1 43 -11 22 -14 28 -15 35 -4 6 10 -3 21 -29 36 -20
13 -42 23 -48 23 -6 0 -23 -18 -38 -40z"/>
<path d="M2030 440 c0 -5 10 -15 22 -21 21 -11 21 -13 -23 -50 -24 -21 -37
-38 -29 -39 16 0 101 63 101 76 1 7 -52 44 -63 44 -5 0 -8 -4 -8 -10z"/>
<path d="M582 428 c-15 -15 -16 -58 -2 -58 6 0 10 11 10 25 0 14 4 25 9 25 19
0 30 -28 25 -62 -4 -22 -2 -38 6 -43 14 -9 60 32 60 53 0 12 -6 10 -25 -8
l-24 -23 2 42 c2 53 -31 79 -61 49z"/>
<path d="M1566 388 c-22 -31 -20 -51 8 -77 35 -33 77 -25 96 16 17 36 33 38
38 5 2 -15 -2 -22 -12 -22 -9 0 -16 -8 -16 -20 0 -20 20 -19 48 3 17 14 15 63
-5 82 -41 41 -132 49 -157 13z m82 -34 c4 -26 -22 -38 -49 -24 -36 20 -21 53
21 48 17 -2 26 -10 28 -24z"/>
<path d="M0 386 c0 -7 9 -16 20 -19 23 -6 27 -32 5 -41 -24 -9 -18 -26 9 -26
25 0 43 -30 31 -50 -9 -14 -38 -13 -54 3 -10 10 -12 7 -9 -13 7 -54 98 -27 98
29 0 16 -7 34 -15 41 -8 7 -15 25 -15 41 0 18 -7 32 -19 39 -27 14 -51 13 -51
-4z"/>
<path d="M480 390 c0 -5 7 -10 15 -10 8 0 15 -4 15 -10 0 -5 -6 -10 -14 -10
-9 0 -12 -7 -9 -20 7 -25 -12 -26 -27 -2 -10 15 -10 15 -8 -3 2 -12 12 -21 25
-23 27 -4 59 53 42 74 -13 16 -39 19 -39 4z"/>
<path d="M2138 383 c-19 -21 -24 -53 -8 -53 13 0 32 38 28 57 -3 13 -6 12 -20
-4z"/>
<path d="M125 364 c-25 -25 -16 -75 17 -93 38 -22 82 -5 86 32 4 31 14 34 33
11 12 -15 11 -19 -9 -32 -30 -20 -30 -46 1 -37 65 20 60 92 -8 121 -46 19
-100 18 -120 -2z m80 -38 c0 -30 -31 -44 -51 -24 -24 24 -11 50 23 46 20 -2
28 -9 28 -22z"/>
<path d="M1378 355 c-9 -21 -8 -28 7 -45 18 -19 17 -20 -3 -20 -14 0 -22 8
-25 23 -3 19 -4 20 -11 4 -10 -21 9 -47 33 -47 24 0 61 28 71 54 19 51 -49 81
-72 31z m55 -1 c9 -10 -4 -34 -18 -34 -17 0 -28 17 -20 30 7 11 28 13 38 4z"/>
<path d="M1233 347 c-9 -19 0 -35 65 -117 97 -122 101 -125 120 -87 6 12 25
45 41 74 30 50 30 53 12 63 -17 9 -23 4 -48 -40 -15 -27 -30 -50 -33 -50 -3 0
-34 38 -69 85 -34 47 -66 87 -70 90 -5 2 -13 -6 -18 -18z"/>
<path d="M1110 330 c-28 -28 -29 -129 -2 -153 26 -24 79 -22 92 2 27 51 1 101
-51 101 -27 0 -29 2 -19 20 13 24 35 26 44 5 7 -19 36 -20 36 -1 0 18 -38 46
-62 46 -10 0 -27 -9 -38 -20z m67 -96 c7 -18 -6 -45 -25 -52 -14 -4 -35 35
-28 54 7 19 45 18 53 -2z"/>
<path d="M503 298 c-46 -51 -57 -112 -25 -141 23 -21 41 -21 70 -1 26 18 62
84 62 113 0 50 -70 69 -107 29z m77 -25 c0 -22 -41 -91 -57 -98 -20 -7 -33 2
-33 23 0 19 36 83 53 94 15 9 37 -2 37 -19z"/>
<path d="M2006 305 c-9 -9 -16 -27 -16 -41 0 -13 -4 -24 -10 -24 -18 0 -50
-39 -50 -60 0 -12 11 -32 25 -45 43 -44 108 -25 107 31 0 18 10 38 24 51 29
26 30 44 7 71 -25 30 -66 37 -87 17z m64 -45 c0 -19 -25 -34 -41 -24 -23 14 2
57 27 47 8 -3 14 -13 14 -23z m-46 -97 c-15 -24 -29 -26 -47 -8 -31 30 11 67
43 38 11 -10 12 -18 4 -30z"/>
<path d="M810 291 c-19 -36 -12 -61 21 -75 27 -11 29 -14 13 -26 -14 -12 -18
-12 -30 5 -8 10 -17 15 -21 11 -12 -12 12 -41 38 -44 13 -2 34 -13 48 -23 22
-18 22 -19 3 -19 -30 0 -65 -32 -57 -52 12 -30 65 -35 65 -7 0 6 -9 8 -19 4
-23 -7 -36 9 -18 23 6 5 27 13 45 17 41 9 41 21 -1 41 l-34 16 19 36 c22 44
23 76 2 96 -21 22 -61 20 -74 -3z m55 -31 c0 -13 -6 -25 -12 -27 -16 -6 -27
21 -19 43 9 23 31 11 31 -16z"/>
<path d="M1838 296 c-31 -6 -60 -14 -64 -19 -4 -4 3 -18 16 -32 18 -19 21 -27
11 -39 -9 -11 -9 -16 0 -21 6 -4 15 -2 19 4 4 7 13 11 21 9 8 -2 13 3 12 9 -2
7 14 28 34 46 21 20 33 39 29 45 -4 7 -10 11 -14 11 -4 -1 -33 -7 -64 -13z
m10 -42 c-16 -16 -38 -12 -38 6 0 8 41 19 49 13 3 -2 -2 -11 -11 -19z"/>
<path d="M322 288 c-18 -18 -14 -45 8 -61 11 -8 17 -16 14 -20 -3 -3 -3 -15 1
-26 4 -15 15 -21 35 -21 61 0 81 63 27 83 -10 4 -15 12 -12 17 18 29 -47 54
-73 28z m48 -28 c0 -11 -4 -20 -9 -20 -13 0 -32 26 -24 33 13 14 33 6 33 -13z
m40 -54 c0 -8 -5 -18 -10 -21 -17 -11 -40 3 -34 20 8 19 44 20 44 1z"/>
<path d="M643 278 c-20 -27 -22 -50 -7 -88 29 -72 92 -101 128 -61 25 27 17
70 -17 95 -27 20 -29 20 -58 4 -29 -17 -29 -17 -29 9 0 21 4 25 24 21 33 -7
57 8 36 22 -21 14 -66 12 -77 -2z m91 -84 c30 -29 14 -61 -23 -49 -25 7 -35
34 -20 51 15 18 24 18 43 -2z"/>
<path d="M1574 279 c-3 -6 -17 -9 -30 -6 -32 6 -30 -7 5 -32 36 -26 41 -26 41
-1 0 11 5 20 10 20 15 0 12 17 -5 23 -8 4 -17 1 -21 -4z m6 -29 c0 -5 -7 -7
-15 -4 -8 4 -15 8 -15 10 0 2 7 4 15 4 8 0 15 -4 15 -10z"/>
<path d="M1644 248 c-4 -7 1 -17 12 -24 60 -40 60 -35 -12 -88 -55 -41 -63
-51 -49 -58 16 -9 76 30 143 93 26 24 26 25 -40 62 -34 20 -49 24 -54 15z"/>
<path d="M2146 252 c-2 -4 -1 -14 5 -22 7 -12 9 -10 9 8 0 23 -5 28 -14 14z"/>
<path d="M178 245 c-4 -4 -2 -18 3 -32 l10 -26 -56 7 c-54 6 -77 -6 -32 -18
41 -11 107 -7 107 7 -1 22 -25 69 -32 62z"/>
<path d="M928 239 c-21 -12 -24 -62 -5 -78 14 -11 106 -9 126 3 16 10 14 51
-4 66 -20 17 -32 5 -15 -15 10 -13 11 -18 1 -28 -10 -9 -15 -8 -25 6 -17 22
-22 22 -29 -3 -6 -23 -35 -27 -43 -5 -4 8 -1 22 6 30 17 21 9 36 -12 24z"/>
<path d="M1237 218 c7 -42 19 -56 34 -41 6 6 17 9 24 6 10 -3 12 2 8 16 -3 11
-9 19 -13 16 -4 -2 -15 4 -25 15 -26 29 -35 25 -28 -12z m33 -18 c0 -5 -4 -10
-10 -10 -5 0 -10 5 -10 10 0 6 5 10 10 10 6 0 10 -4 10 -10z"/>
<path d="M273 204 c-30 -33 -29 -48 1 -40 22 5 24 2 36 -54 14 -64 19 -73 38
-62 8 6 5 30 -12 92 -12 46 -27 85 -32 87 -5 1 -19 -9 -31 -23z"/>
<path d="M1490 215 c-17 -21 -8 -50 17 -53 11 -2 23 -12 26 -23 6 -23 30 -25
52 -3 24 24 15 58 -15 62 -14 2 -29 10 -33 18 -10 18 -31 18 -47 -1z m38 -23
c2 -7 -3 -12 -12 -12 -9 0 -16 7 -16 16 0 17 22 14 28 -4z m52 -26 c0 -8 -5
-18 -11 -22 -14 -8 -33 11 -25 25 10 16 36 13 36 -3z"/>
<path d="M2110 164 c0 -20 4 -33 10 -29 5 3 7 12 3 20 -3 8 -1 15 5 15 5 0 13
-7 16 -16 4 -9 9 -14 12 -11 8 8 -13 44 -31 51 -12 4 -15 -2 -15 -30z"/>
<path d="M18 183 c6 -2 12 -12 12 -20 0 -9 -6 -13 -15 -9 -8 3 -15 1 -15 -4 0
-15 37 -12 42 3 8 19 -2 37 -20 36 -11 0 -12 -2 -4 -6z"/>
<path d="M560 140 c-22 -22 -24 -29 -11 -49 6 -10 10 -10 16 -1 4 6 4 14 1 17
-3 3 -1 12 5 20 20 23 39 -5 39 -57 0 -25 3 -50 7 -54 9 -9 74 55 67 66 -4 5
-17 -1 -30 -13 l-24 -22 0 41 c0 38 -19 72 -41 72 -5 0 -18 -9 -29 -20z"/>
<path d="M200 140 c0 -6 -27 -10 -60 -10 -78 0 -78 -14 1 -68 75 -52 89 -53
89 -7 0 28 4 35 20 35 13 0 20 7 20 20 0 13 -7 20 -20 20 -11 0 -20 5 -20 10
0 6 -7 10 -15 10 -8 0 -15 -4 -15 -10z m0 -66 c0 -17 -10 -17 -32 0 -25 18
-22 24 7 18 14 -2 25 -11 25 -18z"/>
<path d="M1824 138 c-2 -4 4 -11 13 -17 17 -10 16 -14 -9 -61 -33 -59 -33 -60
-10 -60 11 0 30 25 55 70 20 38 37 71 37 74 0 8 -81 2 -86 -6z"/>
<path d="M1253 133 c-18 -3 -23 -11 -23 -33 0 -33 15 -47 34 -31 10 8 16 7 26
-3 17 -22 2 -39 -27 -31 -18 4 -24 2 -21 -7 6 -18 46 -22 64 -8 31 27 1 87
-37 75 -10 -4 -19 -2 -19 4 0 6 11 13 25 17 14 3 22 10 19 15 -3 5 -8 8 -12 8
-4 -1 -17 -4 -29 -6z"/>
<path d="M370 121 c0 -9 44 -51 53 -51 4 0 7 7 7 15 0 8 7 15 15 15 12 0 13 3
4 13 -13 13 -79 20 -79 8z m50 -21 c0 -5 -2 -10 -4 -10 -3 0 -8 5 -11 10 -3 6
-1 10 4 10 6 0 11 -4 11 -10z"/>
<path d="M1016 115 c-50 -18 -74 -42 -82 -83 -6 -29 -4 -32 19 -32 19 0 25 4
21 14 -6 17 33 56 57 56 23 0 42 -26 36 -50 -4 -16 0 -20 19 -20 20 0 24 5 24
28 0 15 -5 33 -12 40 -18 18 -3 25 29 15 32 -11 44 -49 19 -59 -22 -8 -10 -24
19 -24 42 0 49 67 10 105 -28 29 -94 33 -159 10z"/>
<path d="M1704 115 c-12 -30 4 -48 37 -41 27 5 30 4 19 -9 -18 -22 -6 -29 13
-8 14 16 14 20 0 38 -11 14 -17 16 -20 8 -6 -16 -29 -17 -38 -3 -3 6 4 14 17
19 l23 10 -23 0 c-12 1 -25 -6 -28 -14z"/>
<path d="M1472 84 c-25 -17 -30 -64 -7 -64 8 0 15 9 15 20 0 25 27 37 43 21 9
-9 9 -16 -1 -31 -6 -11 -12 -21 -12 -23 0 -2 23 -4 51 -5 43 -1 49 1 39 14 -7
7 -19 14 -26 14 -8 0 -14 9 -14 19 0 24 -26 51 -48 51 -10 0 -28 -7 -40 -16z"/>
<path d="M1956 68 c-33 -31 -44 -68 -19 -68 10 0 24 9 31 20 7 11 21 20 32 20
11 0 20 4 20 9 0 5 3 16 6 25 10 25 -40 20 -70 -6z"/>
<path d="M459 52 c-34 -16 -55 -32 -52 -39 5 -15 73 -18 73 -4 0 16 41 20 47
5 4 -12 53 -21 53 -10 0 15 -44 76 -53 75 -7 0 -37 -13 -68 -27z"/>
<path d="M745 40 c-33 -34 -36 -40 -19 -40 27 0 81 57 68 70 -7 7 -23 -4 -49
-30z"/>
<path d="M76 34 c-4 -14 -5 -28 -3 -31 3 -2 28 -3 56 -1 l51 3 -33 22 c-53 36
-64 37 -71 7z"/>
<path d="M2126 38 c-6 -26 0 -38 20 -38 18 0 19 46 0 53 -9 4 -16 -3 -20 -15z"/>
<path d="M1398 44 c-8 -7 13 -44 24 -44 12 0 10 14 -5 34 -7 9 -16 14 -19 10z"/>
<path d="M0 20 c0 -11 7 -20 15 -20 13 0 14 4 5 20 -6 11 -13 20 -15 20 -3 0
-5 -9 -5 -20z"/>
<path d="M800 10 c-11 -7 -3 -10 30 -10 33 0 41 3 30 10 -8 5 -22 10 -30 10
-8 0 -22 -5 -30 -10z"/>
<path d="M1725 10 c-4 -6 5 -10 20 -10 15 0 24 4 20 10 -8 13 -32 13 -40 0z"/>
<path d="M2050 9 c0 -5 9 -9 20 -9 11 0 20 2 20 4 0 2 -9 6 -20 9 -11 3 -20 1
-20 -4z"/>
<path d="M1343 3 c9 -2 23 -2 30 0 6 3 -1 5 -18 5 -16 0 -22 -2 -12 -5z"/>
</g>
</svg>
