<svg width="36" height="36" viewBox="0 0 36 36" fill="none" xmlns="http://www.w3.org/2000/svg">
<circle cx="18" cy="18" r="18" fill="#574AB2"/>
<path d="M28.6187 26.2371L28.6188 26.237L28.6125 26.231L23.8406 21.5761C25.1173 19.8801 25.7363 17.7884 25.5736 15.6766C25.3991 13.4112 24.3389 11.3007 22.6162 9.78044C20.8939 8.26053 18.641 7.44624 16.3237 7.50276C14.0064 7.55928 11.7976 8.48241 10.155 10.0848C8.51196 11.6875 7.56105 13.8474 7.50284 16.1185C7.44462 18.3897 8.28371 20.5937 9.84294 22.2749C11.4018 23.9557 13.5609 24.9854 15.8725 25.1549C18.0353 25.3134 20.1807 24.7077 21.9203 23.4546L26.7073 28.1242L26.7072 28.1242L26.7136 28.1302C26.9696 28.3714 27.3101 28.5029 27.6611 28.4999C28.0121 28.497 28.3503 28.3597 28.6021 28.114C28.8544 27.868 28.9998 27.5325 29.003 27.179C29.0061 26.8256 28.8667 26.4876 28.6187 26.2371ZM16.5627 22.5143C15.3084 22.5142 14.0834 22.1513 13.0424 21.4728C12.0014 20.7943 11.192 19.8313 10.7145 18.7068C10.2371 17.5826 10.1124 16.3462 10.3556 15.1535C10.5989 13.9607 11.1995 12.8634 12.0837 12.0009C12.9681 11.1383 14.0962 10.5495 15.3263 10.3108C16.5563 10.0721 17.8312 10.1947 18.9892 10.6626C20.147 11.1304 21.1347 11.9219 21.8286 12.9349C22.5223 13.9477 22.8918 15.137 22.892 16.3526C22.8901 17.9821 22.2257 19.547 21.0405 20.7032C19.8548 21.8598 18.2447 22.5125 16.5627 22.5143Z" fill="white" stroke="white"/>
</svg>
