<svg width="68" height="68" viewBox="0 0 68 68" fill="none" xmlns="http://www.w3.org/2000/svg">
<circle cx="34" cy="34" r="34" fill="#FFA000"/>
<g clip-path="url(#clip0_9_3)">
<path d="M34.3989 42C36.5151 42 38.5837 41.2669 40.3432 39.8934C42.1027 38.5199 43.4741 36.5676 44.2839 34.2835C45.0937 31.9995 45.3056 29.4861 44.8928 27.0614C44.4799 24.6366 43.4609 22.4093 41.9646 20.6612C40.4682 18.913 38.5618 17.7225 36.4863 17.2402C34.4108 16.7579 32.2595 17.0054 30.3044 17.9515C28.3493 18.8976 26.6783 20.4998 25.5026 22.5554C24.327 24.611 23.6995 27.0277 23.6995 29.5C23.7023 32.8142 24.8305 35.9917 26.8364 38.3352C28.8423 40.6787 31.5621 41.9967 34.3989 42ZM34.3989 21.1667C35.8097 21.1667 37.1888 21.6554 38.3618 22.5711C39.5348 23.4868 40.449 24.7883 40.9889 26.311C41.5288 27.8337 41.67 29.5092 41.3948 31.1258C41.1196 32.7423 40.4402 34.2271 39.4427 35.3926C38.4451 36.558 37.1741 37.3517 35.7905 37.6732C34.4068 37.9948 32.9726 37.8297 31.6692 37.199C30.3659 36.5683 29.2518 35.5002 28.4681 34.1298C27.6843 32.7593 27.2659 31.1482 27.2659 29.5C27.2659 27.2899 28.0175 25.1703 29.3551 23.6074C30.6928 22.0446 32.5071 21.1667 34.3989 21.1667Z" fill="white"/>
<path d="M34.3989 46.1667C30.1438 46.1722 26.0644 48.1494 23.0556 51.6645C20.0469 55.1796 18.3545 59.9456 18.3497 64.9167C18.3497 65.4692 18.5376 65.9991 18.872 66.3898C19.2065 66.7805 19.66 67 20.133 67C20.6059 67 21.0595 66.7805 21.3939 66.3898C21.7283 65.9991 21.9162 65.4692 21.9162 64.9167C21.9162 61.0489 23.2313 57.3396 25.5723 54.6047C27.9133 51.8698 31.0883 50.3334 34.3989 50.3334C37.7095 50.3334 40.8845 51.8698 43.2255 54.6047C45.5664 57.3396 46.8816 61.0489 46.8816 64.9167C46.8816 65.4692 47.0695 65.9991 47.4039 66.3898C47.7383 66.7805 48.1919 67 48.6648 67C49.1378 67 49.5913 66.7805 49.9258 66.3898C50.2602 65.9991 50.4481 65.4692 50.4481 64.9167C50.4433 59.9456 48.7509 55.1796 45.7422 51.6645C42.7334 48.1494 38.654 46.1722 34.3989 46.1667Z" fill="white"/>
</g>
<defs>
<clipPath id="clip0_9_3">
<rect width="42.7978" height="50" fill="white" transform="translate(13 17)"/>
</clipPath>
</defs>
</svg>
